# xmcd
#
# Track frame offsets:
#	150
#	20190
#	37960
#	53230
#	70937
#	101338
#	125590
#	144096
#	161696
#	180568
#
# Disc length: 2692 seconds
#
# Revision: 1
# Processed by: cddbd v1.5.2PL0 Copyright (c) Steve Scherf et al.
# Submitted via: audiograbber 1.83.01
#
DISCID=830a820a
DTITLE=Malted Milk - Get Some
DYEAR=2012
DGENRE=Blues
TTITLE0=Human Wave
TTITLE1=Hope She Believes In Me
TTITLE2=Touch You
TTITLE3=Sweet Baby
TTITLE4=True Love
TTITLE5=Since You Left Me
TTITLE6=Soul Of A Woman
TTITLE7=Nola Dance
TTITLE8=Brand New Man
TTITLE9=I Know It Was Your Love
EXTD=
EXTT0=
EXTT1=
EXTT2=
EXTT3=
EXTT4=
EXTT5=
EXTT6=
EXTT7=
EXTT8=
EXTT9=
PLAYORDER=
